<svg xmlns="http://www.w3.org/2000/svg" xmlns:xlink="http://www.w3.org/1999/xlink" width="1142" zoomAndPan="magnify" viewBox="0 0 856.5 374.999991" height="500" preserveAspectRatio="xMidYMid meet" version="1.0"><defs><clipPath id="3d26d6d509"><path d="M 0 0.109375 L 856 0.109375 L 856 374.53125 L 0 374.53125 Z M 0 0.109375 " clip-rule="nonzero"/></clipPath></defs><g clip-path="url(#3d26d6d509)"><path fill="#ffffff" d="M 73.757812 -1.75 L 62.667969 44.90625 L 145.359375 44.9375 L 164.765625 44.9375 C 217.921875 44.9375 250.390625 66.316406 241.367188 104.28125 C 231.546875 145.625 185.082031 163.625 135.71875 163.625 L 117.167969 163.625 L 141.25 62.199219 L 58.5625 62.199219 L 23.378906 210.316406 L 140.648438 210.316406 C 228.832031 210.316406 312.667969 163.769531 327.421875 104.28125 C 330.128906 93.363281 329.75 66.078125 323.089844 49.824219 C 322.917969 49.1875 322.746094 48.691406 322.128906 47.398438 C 321.894531 46.867188 321.675781 44.453125 323.058594 43.933594 C 323.824219 43.644531 325.246094 45.144531 325.429688 45.585938 C 326.117188 47.398438 326.648438 48.742188 326.648438 48.742188 L 401.265625 259.4375 L 591.238281 45.015625 L 671.710938 44.945312 L 691.117188 44.945312 C 744.285156 44.945312 777.019531 66.320312 768 104.289062 C 758.179688 145.628906 711.445312 163.632812 662.085938 163.632812 L 643.523438 163.632812 L 667.617188 62.1875 L 584.929688 62.1875 L 549.734375 210.316406 L 667.023438 210.316406 C 755.191406 210.316406 839.621094 163.90625 853.785156 104.28125 C 867.949219 44.652344 806 -1.753906 717.398438 -1.753906 L 542.441406 -1.753906 C 542.441406 -1.753906 496.097656 53.125 487.496094 63.484375 C 441.316406 119.097656 433.132812 134.007812 431.742188 137.855469 C 431.933594 133.976562 430.273438 118.925781 410.578125 62.699219 C 405.339844 47.726562 388.460938 -1.753906 388.460938 -1.753906 L 73.75 -1.753906 Z M 404.25 260.332031 C 181.070312 260.332031 0.136719 285.980469 0.136719 317.609375 C 0.136719 349.238281 181.070312 374.882812 404.25 374.882812 C 627.425781 374.882812 808.363281 349.238281 808.363281 317.609375 C 808.363281 285.980469 627.425781 260.332031 404.25 260.332031 Z M 389.621094 299.648438 C 440.585938 299.648438 481.894531 308.195312 481.894531 318.738281 C 481.894531 329.28125 440.582031 337.832031 389.621094 337.832031 C 338.664062 337.832031 297.34375 329.28125 297.34375 318.738281 C 297.34375 308.195312 338.664062 299.648438 389.621094 299.648438 Z M 389.621094 299.648438 " fill-opacity="1" fill-rule="nonzero"/></g></svg>